<svg xmlns="http://www.w3.org/2000/svg" width="250" height="250" viewBox="0 0 250 250">
  <g fill="none" transform="translate(32.552 68.36)">
    <polygon fill="#A8A8A8" points="67.434 85.688 52.8 85.688 52.8 48.187 14.995 48.187 14.995 85.688 .303 85.688 .303 1.167 14.995 1.167 14.995 36.345 52.799 36.345 52.799 1.166 67.434 1.166"/>
    <path fill="#A8A8A8" d="M110.142063,112.626358 L82.6734755,112.626358 L82.6734755,106.68006 L95.3268026,93.3824759 C98.4446728,89.8331803 100.003768,87.0132536 100.004089,84.9226958 C100.004089,83.2297129 99.6349397,81.941525 98.8966404,81.0581319 C98.0857996,80.1441566 96.898308,79.6555124 95.6787788,79.734005 C94.3254587,79.7157597 93.054356,80.3815849 92.2991333,81.5043208 C91.3984659,82.7977215 90.9422444,84.3484836 90.9990845,85.9233718 L81.8607042,85.9233718 C81.8439324,83.5699688 82.4702526,81.2566494 83.6721056,79.2329449 C84.8695357,77.1975169 86.6110098,75.5361798 88.700887,74.4355719 C90.9153161,73.2654088 93.3885039,72.6705486 95.8930461,72.7056874 C100.146934,72.7056874 103.422897,73.6875918 105.720934,75.6514006 C108.018971,77.6152093 109.16815,80.435136 109.168471,84.1111807 C109.167756,85.6612731 108.873686,87.1972374 108.301771,88.6380487 C107.617425,90.2925215 106.712347,91.8468555 105.611152,93.2587752 C103.792551,95.5408193 101.82827,97.7029506 99.7305976,99.7316429 L94.6474067,105.597078 L110.140137,105.597078 L110.142063,112.626358 Z"/>
    <path fill="#E3110D" d="M184.59297,45.6296741 C184.59297,53.9120055 183.160509,61.1779375 180.295586,67.4274701 C177.430664,73.6770026 173.336634,78.476301 168.013496,81.825365 C162.689715,85.1734664 156.563115,86.8473567 149.633694,86.8470358 C142.781313,86.8470358 136.674133,85.1731456 131.312154,81.825365 C125.950175,78.4775845 121.807674,73.7078075 118.88465,67.516034 C115.960985,61.3245814 114.480053,54.1849172 114.441854,46.0970414 L114.441854,41.3367304 C114.441854,33.0935469 115.903205,25.817828 118.825907,19.5095737 C121.74861,13.2013193 125.871691,8.37346235 131.19515,5.02600272 C136.517646,1.67886396 142.624826,0.00497369866 149.51669,0.00433193109 C156.408554,0.00369016352 162.515734,1.65816696 167.83823,4.96776231 C173.161047,8.27703678 177.274498,13.0371873 180.178582,19.2482138 C183.082666,25.4592403 184.553808,32.6866663 184.592007,40.9304916 L184.59297,45.6296741 Z M169.900974,41.217843 C169.900974,31.8525289 168.129697,24.6735564 164.587145,19.6809256 C161.044592,14.6882948 156.020946,12.1921398 149.516208,12.1924607 C143.166513,12.1924607 138.201289,14.67931 134.620538,19.6530087 C131.039786,24.6267074 129.210088,31.6604799 129.131443,40.7543264 L129.131443,45.6296741 C129.131443,54.9176553 130.941399,62.0966278 134.561313,67.1665915 C138.181227,72.2365553 143.204872,74.7715372 149.63225,74.7715372 C156.136346,74.7715372 161.14025,72.2947957 164.643962,67.3413128 C168.147673,62.3878298 169.900011,55.1506169 169.900974,45.6296741 L169.900974,41.217843 Z"/>
  </g>
</svg>
